<svg id="Logo" xmlns="http://www.w3.org/2000/svg" viewBox="0 0 315 315"><defs><style>.cls-1{fill:none;}.cls-2{fill:#05ffc3;}.cls-2,.cls-6{stroke:#004177;stroke-miterlimit:10;stroke-width:4px;}.cls-3{fill:#ffaffa;}.cls-4{fill:#fffdaf;}.cls-5{fill:#fff;}.cls-6{fill:#008de2;}</style></defs><title>makenew</title><rect id="Matte" class="cls-1" width="315" height="315"/><g id="Faces"><polygon class="cls-2" points="160.5 37.67 221.5 65.5 221.5 75.5 160.5 103.5 147.5 103.5 91.17 70.58 160.5 37.67"/><polygon class="cls-3" points="94.17 132.83 156.33 162.5 133.5 184.17 88.17 199.83 35.17 176.17 33.5 160.83 94.17 132.83"/><polygon class="cls-4" points="221.5 132.83 287.83 166.33 221.5 197.5 166.17 171.83 161.17 161.17 221.5 132.83"/><polygon class="cls-5" points="218.83 86.83 221.5 132.83 163.45 160.1 157.5 135.17 154.5 106.5 211.83 82.17 218.83 86.83"/><path class="cls-5" d="M232.83,197.5l49.33-22.33,5.67,53.33-14.67,16s-34,15-35,15.67-15,3.67-15,3.67l-4.33-44.33Z"/><polygon class="cls-5" points="154.5 182.5 154.5 233.5 117.17 256.17 94.92 262.5 87.5 237.83 91.17 212.17 100.91 195.43 151.5 176.83 154.5 182.5"/></g><g id="Cubes"><path class="cls-6" d="M295.78,228.47c0,6.72-3.44,13-9,16l-57,31.37a14.4,14.4,0,0,1-14.5,0l-57-31.37a2,2,0,0,1-.89-0.56,2,2,0,0,1-.89.56l-57,31.37a14.4,14.4,0,0,1-14.5,0L28,244.43c-5.6-2.94-9-9.24-9-16V170.22a18.35,18.35,0,0,1,9.92-16.52l55.22-26v-56A18.35,18.35,0,0,1,94,55.11l57-26.89a15.15,15.15,0,0,1,12.72,0l57,26.89a18.35,18.35,0,0,1,9.92,16.52v56l55.22,26a18.12,18.12,0,0,1,9.92,16.52v58.25ZM143.61,167.56l-51.4-24.22-51.4,24.22,51.4,24.23Zm5.6,60.91v-44l-48.86,23v47.89ZM213.46,71.22L157.35,44.75,101.25,71.22l56.11,26.47Zm0.89,56.43V90.4l-48.86,23v37.39Zm59.54,39.91-51.4-24.22-51.4,24.22,51.4,24.23Zm5.6,60.91v-44l-48.86,23v47.89Z"/></g></svg>