<svg version="1.1" id="Layer_1" xmlns="http://www.w3.org/2000/svg" xmlns:xlink="http://www.w3.org/1999/xlink" x="0" y="0" width="512" height="512" viewBox="0 0 512 512" enable-background="new 0 0 512 512" xml:space="preserve">
  <path fill="#3F894A" d="M155.28 376.36c-0.6-8-2.82-16.75-11.66-24.81 0-0.01-0.02-0.01-0.04-0.03 -0.34-0.32-0.73-0.65-1.09-0.97 -0.05-0.03-0.09-0.08-0.13-0.11 -12.23-11.17-22-32.63-22-55.42 0-31.76 14.07-122.06 17.11-122.06 2.41 0 2.46 43.55 0.86 84.49 -1.11 28.43 3.1 39.63 9.88 39.63 9.03 0 10.48-28.59 11.42-60.76C160.4 209.83 162.72 173 164.57 173h0c2.89 0 5.28 36.4 6.05 62.95 0.96 32.96 3.24 60.33 10.79 60.33 7.93 0 10.34-12.67 9.78-40.77 -0.69-34.31-0.69-82.55 1.72-82.55 3.04 0 13.36 31.7 15.85 122.06 0.63 22.78-9.77 44.25-22 55.42 -0.04 0.03-0.07 0.08-0.13 0.11 -0.36 0.32-0.75 0.65-1.09 0.97 -0.02 0.02-0.04 0.02-0.04 0.03 -8.84 8.06-11.07 16.82-11.67 24.82 -0.95 12.77-1.39 29.13-1.34 47.55l69.65 69.65c0.98-30.35 0.88-58.99-0.46-80.6 -0.5-8.07-1.52-17.45-2.93-24.93 -0.44-2.38-1.74-4.58-1.74-6.48 0-26.19 0-246.92 0-263.13 0-22.45 20.79-33.05 40.13 16.21 19.34 49.26 13.83 224.48 13.83 236.94 0 2.64-2.35 5.77-6.11 8.83 -1.5 0.97-2.84 1.96-4.1 2.96 -11.58 9.29-13.25 20-13.86 29.61 -1.45 23.25-2.61 54.6-2.92 87.49l96-95.99c-0.13-11.28-0.45-21.42-0.98-29.88 -0.2-3.24-1-6.53-1.62-10.01 -1.74-9.83-13.91-17.88-20.96-24.96 -13.68-13.73-22.48-36.83-22.48-62.87 0-42.28 23.44-95.8 52.35-95.8 28.91 0 52.35 53.52 52.35 95.8 0 26.04-8.79 49.13-22.48 62.87 -7.05 7.07-19.22 15.13-20.96 24.96 -0.62 3.48-1.42 6.77-1.62 10.01 -0.32 5.08-0.55 10.82-0.72 16.99l134.11-134.11L256.5 7 6.04 257.46l150.49 150.49C156.36 396.02 155.95 385.29 155.28 376.36z"/>
</svg>
