<svg id="Logo" xmlns="http://www.w3.org/2000/svg" viewBox="0 0 315 315"><defs><style>.cls-1{fill:none}.cls-2{fill:#05ffc3}.cls-2,.cls-6{stroke:#004177;stroke-miterlimit:10;stroke-width:4px}.cls-3{fill:#ffaffa}.cls-4{fill:#fffdaf}.cls-5{fill:#fff}.cls-6{fill:#008de2}</style></defs><title>makenew</title><path id="Matte" class="cls-1" d="M0 0h315v315H0z"/><g id="Faces"><path class="cls-2" d="M160.5 37.67l61 27.83v10l-61 28h-13L91.17 70.58l69.33-32.91z"/><path class="cls-3" d="M94.17 132.83l62.16 29.67-22.83 21.67-45.33 15.66-53-23.66-1.67-15.34 60.67-28z"/><path class="cls-4" d="M221.5 132.83l66.33 33.5-66.33 31.17-55.33-25.67-5-10.66 60.33-28.34z"/><path class="cls-5" d="M218.83 86.83l2.67 46-58.05 27.27-5.95-24.93-3-28.67 57.33-24.33 7 4.66zm14 110.67l49.33-22.33 5.67 53.33-14.67 16s-34 15-35 15.67-15 3.67-15 3.67l-4.33-44.33zm-78.33-15v51l-37.33 22.67-22.25 6.33-7.42-24.67 3.67-25.66 9.74-16.74 50.59-18.6 3 5.67z"/></g><path class="cls-6" d="M295.78 228.47c0 6.72-3.44 13-9 16l-57 31.37a14.4 14.4 0 0 1-14.5 0l-57-31.37a2 2 0 0 1-.89-.56 2 2 0 0 1-.89.56l-57 31.37a14.4 14.4 0 0 1-14.5 0l-57-31.41c-5.6-2.94-9-9.24-9-16v-58.21a18.35 18.35 0 0 1 9.92-16.52l55.22-26v-56A18.35 18.35 0 0 1 94 55.11l57-26.89a15.15 15.15 0 0 1 12.72 0l57 26.89a18.35 18.35 0 0 1 9.92 16.52v56l55.22 26a18.12 18.12 0 0 1 9.92 16.52v58.25zm-152.17-60.91l-51.4-24.22-51.4 24.22 51.4 24.23zm5.6 60.91v-44l-48.86 23v47.89zm64.25-157.25l-56.11-26.47-56.1 26.47 56.11 26.47zm.89 56.43V90.4l-48.86 23v37.39zm59.54 39.91l-51.4-24.22-51.4 24.22 51.4 24.23zm5.6 60.91v-44l-48.86 23v47.89z" id="Cubes"/></svg>